<svg width="52" height="49" viewBox="0 0 52 49" fill="none" xmlns="http://www.w3.org/2000/svg">
<g filter="url(#filter0_d)">
<path fill-rule="evenodd" clip-rule="evenodd" d="M8.71429 17.4286C11.3179 17.4286 13.4286 15.3179 13.4286 12.7143C13.4286 10.1107 11.3179 8 8.71429 8C6.11066 8 4 10.1107 4 12.7143C4 15.3179 6.11066 17.4286 8.71429 17.4286ZM8.71429 29.6857C11.3179 29.6857 13.4286 27.5751 13.4286 24.9714C13.4286 22.3678 11.3179 20.2571 8.71429 20.2571C6.11066 20.2571 4 22.3678 4 24.9714C4 27.5751 6.11066 29.6857 8.71429 29.6857ZM37 12.7143C37 15.3179 34.8893 17.4286 32.2857 17.4286C29.6821 17.4286 27.5714 15.3179 27.5714 12.7143C27.5714 10.1107 29.6821 8 32.2857 8C34.8893 8 37 10.1107 37 12.7143ZM20.0286 17.4286C22.6322 17.4286 24.7429 15.3179 24.7429 12.7143C24.7429 10.1107 22.6322 8 20.0286 8C17.4249 8 15.3143 10.1107 15.3143 12.7143C15.3143 15.3179 17.4249 17.4286 20.0286 17.4286ZM25.6857 24.9714C25.6857 27.5751 23.5751 29.6857 20.9714 29.6857C18.3678 29.6857 16.2571 27.5751 16.2571 24.9714C16.2571 22.3678 18.3678 20.2571 20.9714 20.2571C23.5751 20.2571 25.6857 22.3678 25.6857 24.9714ZM8.71429 41C11.3179 41 13.4286 38.8893 13.4286 36.2857C13.4286 33.6821 11.3179 31.5714 8.71429 31.5714C6.11066 31.5714 4 33.6821 4 36.2857C4 38.8893 6.11066 41 8.71429 41ZM37 36.2857C37 38.8893 34.8893 41 32.2857 41C29.6821 41 27.5714 38.8893 27.5714 36.2857C27.5714 33.6821 29.6821 31.5714 32.2857 31.5714C34.8893 31.5714 37 33.6821 37 36.2857Z" fill="#3D3D3D"/>
</g>
<defs>
<filter id="filter0_d" x="0" y="0" width="56" height="56" filterUnits="userSpaceOnUse" color-interpolation-filters="sRGB">
<feFlood flood-opacity="0" result="BackgroundImageFix"/>
<feColorMatrix in="SourceAlpha" type="matrix" values="0 0 0 0 0 0 0 0 0 0 0 0 0 0 0 0 0 0 127 0"/>
<feOffset dy="4"/>
<feGaussianBlur stdDeviation="2"/>
<feColorMatrix type="matrix" values="0 0 0 0 0 0 0 0 0 0 0 0 0 0 0 0 0 0 0.25 0"/>
<feBlend mode="normal" in2="BackgroundImageFix" result="effect1_dropShadow"/>
<feBlend mode="normal" in="SourceGraphic" in2="effect1_dropShadow" result="shape"/>
</filter>
</defs>
</svg>
